<svg t="1686737286573" class="icon" viewBox="0 0 1024 1024" version="1.1" xmlns="http://www.w3.org/2000/svg" p-id="2446" width="20" height="20"><path d="M938.666667 0a85.333333 85.333333 0 0 1 85.333333 85.333333v853.333334a85.333333 85.333333 0 0 1-85.333333 85.333333H85.333333a85.333333 85.333333 0 0 1-85.333333-85.333333V85.333333a85.333333 85.333333 0 0 1 85.333333-85.333333z m0 42.666667H85.333333a42.666667 42.666667 0 0 0-42.666666 42.666666v853.333334a42.666667 42.666667 0 0 0 42.666666 42.666666h853.333334a42.666667 42.666667 0 0 0 42.666666-42.666666V85.333333a42.666667 42.666667 0 0 0-42.666666-42.666666z m0 682.666666v213.333334h-213.333334v-213.333334h213.333334z m0-426.666666v213.333333h-213.333334v213.333333h-213.333333v213.333334H298.666667v-213.333334H85.333333v-213.333333h213.333334V298.666667h213.333333V85.333333h213.333333v213.333334h-213.333333v213.333333h213.333333V298.666667h213.333334z m-426.666667 213.333333H298.666667v213.333333h213.333333v-213.333333zM298.666667 85.333333v213.333334H85.333333V85.333333h213.333334z" fill="#DEE0E3" p-id="2447"></path></svg>